<svg width="15" height="14" viewBox="0 0 15 14" fill="none" xmlns="http://www.w3.org/2000/svg">
<path d="M6.48438 1.09375C6.17188 1.40625 6.20312 1.875 6.48438 2.1875L10.2656 5.75H1.29688C0.859375 5.75 0.546875 6.09375 0.546875 6.5V7.5C0.546875 7.9375 0.859375 8.25 1.29688 8.25H10.2656L6.48438 11.8438C6.20312 12.1562 6.20312 12.625 6.48438 12.9375L7.17188 13.625C7.48438 13.9062 7.95312 13.9062 8.23438 13.625L14.3281 7.53125C14.6094 7.25 14.6094 6.78125 14.3281 6.46875L8.23438 0.40625C7.95312 0.125 7.48438 0.125 7.17188 0.40625L6.48438 1.09375Z" fill="white"/>
</svg>
