<svg width="20" height="20" viewBox="0 0 20 20" fill="none" xmlns="http://www.w3.org/2000/svg">
<path d="M9.5584 5H13.7251M9.5584 15H12.8917M9.5584 11.625L13.7251 11.6667M9.5584 8.33333H12.0584M7.0334 5.83333H2.1084M17.8917 15.8333V4.16666C17.8917 2.5 17.0584 1.66666 15.3917 1.66666H12.0584C10.3917 1.66666 9.5584 2.5 9.5584 4.16666V15.8333C9.5584 17.5 10.3917 18.3333 12.0584 18.3333H15.3917C17.0584 18.3333 17.8917 17.5 17.8917 15.8333ZM4.57506 1.66666C3.21673 1.66666 2.1084 2.775 2.1084 4.125V14.925C2.1084 15.3 2.26673 15.8667 2.4584 16.1917L3.14173 17.325C3.92507 18.6333 5.21673 18.6333 6.00007 17.325L6.6834 16.1917C6.87507 15.8667 7.0334 15.3 7.0334 14.925V4.125C7.0334 2.775 5.92506 1.66666 4.57506 1.66666Z" stroke="white" stroke-width="1.5" stroke-linecap="round"/>
</svg>
